<?xml version="1.0" standalone="no"?>
<!DOCTYPE svg PUBLIC "-//W3C//DTD SVG 20010904//EN"
 "http://www.w3.org/TR/2001/REC-SVG-20010904/DTD/svg10.dtd">
<svg version="1.0" xmlns="http://www.w3.org/2000/svg"
 width="1490.000000pt" height="1490.000000pt" viewBox="0 0 1490.000000 1490.000000"
 preserveAspectRatio="xMidYMid meet">
<metadata>
Created by potrace 1.14, written by Peter Selinger 2001-2017
</metadata>
<g transform="translate(0.000000,1490.000000) scale(0.100000,-0.100000)"
fill="#000000" stroke="none">
<path d="M0 7450 l0 -7450 7450 0 7450 0 0 7450 0 7450 -7450 0 -7450 0 0
-7450z m7245 4351 c3 -10 17 -31 30 -46 14 -14 32 -42 40 -61 8 -19 19 -34 24
-34 6 0 11 -5 11 -11 0 -6 11 -24 25 -41 14 -16 25 -36 25 -45 0 -8 14 -33 31
-55 18 -22 37 -54 43 -71 15 -41 56 -107 66 -107 4 0 11 -16 14 -36 4 -19 14
-38 22 -41 7 -3 14 -12 14 -19 0 -8 6 -17 14 -20 8 -3 17 -17 21 -32 10 -39
63 -129 80 -136 8 -3 15 -15 15 -26 0 -11 9 -29 20 -40 11 -11 20 -23 20 -28
0 -4 9 -15 20 -25 11 -9 20 -26 20 -37 0 -12 9 -34 20 -50 11 -17 28 -42 38
-57 10 -16 22 -39 25 -53 3 -14 22 -43 42 -64 19 -21 35 -47 35 -57 0 -11 9
-28 20 -39 11 -11 20 -25 20 -30 0 -6 9 -20 20 -32 11 -12 20 -28 20 -36 0 -9
18 -39 40 -68 21 -28 42 -63 45 -77 4 -14 15 -33 26 -43 10 -9 19 -23 19 -29
0 -7 6 -15 14 -18 7 -3 16 -21 20 -40 3 -18 22 -52 41 -74 18 -22 37 -52 40
-66 4 -15 11 -27 15 -27 4 0 13 -15 21 -32 7 -18 18 -36 25 -41 7 -4 15 -20
19 -36 3 -16 13 -35 21 -42 8 -6 14 -17 14 -23 0 -7 11 -23 25 -36 14 -13 25
-31 25 -41 0 -9 7 -23 17 -30 9 -8 22 -29 30 -46 7 -18 18 -33 23 -33 6 0 10
-10 10 -22 0 -13 9 -34 20 -48 11 -14 20 -31 20 -37 0 -7 5 -13 11 -13 5 0 17
-17 26 -37 8 -21 21 -42 29 -46 8 -4 14 -14 14 -21 0 -8 6 -16 14 -19 8 -3 17
-21 21 -39 4 -18 15 -44 24 -58 29 -45 41 -65 62 -105 12 -22 33 -55 48 -74
27 -37 49 -74 75 -128 8 -18 20 -33 25 -33 6 0 11 -8 11 -19 0 -10 11 -35 25
-55 14 -20 25 -41 25 -46 0 -6 6 -10 14 -10 8 0 17 -15 20 -36 4 -19 14 -38
22 -41 7 -3 14 -11 14 -18 0 -6 8 -20 19 -29 10 -9 21 -29 24 -45 3 -15 21
-50 41 -79 19 -29 37 -60 41 -71 3 -10 14 -26 25 -36 11 -10 20 -24 20 -32 0
-7 6 -16 14 -19 8 -3 18 -18 21 -34 3 -16 13 -34 20 -40 8 -7 21 -24 28 -39
21 -41 33 -64 47 -91 8 -14 20 -37 28 -52 7 -16 17 -28 22 -28 4 0 13 -14 19
-30 5 -17 25 -54 44 -83 18 -28 42 -69 53 -90 10 -22 29 -49 40 -62 12 -13 24
-34 27 -47 4 -13 16 -35 27 -48 11 -13 20 -29 20 -35 0 -7 6 -15 14 -18 7 -3
16 -17 20 -32 6 -24 51 -103 65 -115 3 -3 14 -21 24 -40 38 -73 48 -90 58 -90
5 0 9 -8 9 -19 0 -10 9 -30 20 -44 11 -14 20 -30 20 -35 0 -5 7 -15 16 -22 8
-8 21 -28 29 -46 8 -19 19 -39 25 -46 25 -31 60 -90 60 -103 0 -8 9 -24 19
-34 10 -10 22 -28 25 -39 4 -11 13 -23 21 -26 8 -3 15 -12 15 -21 0 -14 31
-73 88 -163 12 -21 26 -47 32 -59 5 -11 14 -24 20 -28 5 -3 17 -22 25 -41 8
-20 28 -56 45 -80 16 -25 30 -49 30 -53 0 -4 17 -32 38 -63 20 -30 50 -80 67
-111 16 -31 32 -57 36 -57 4 0 14 -18 23 -41 9 -22 32 -64 51 -92 19 -28 35
-55 35 -60 0 -7 50 -88 60 -97 4 -3 12 -19 19 -36 6 -17 25 -45 41 -62 16 -17
32 -42 36 -54 11 -36 65 -128 75 -128 5 0 9 -8 9 -19 0 -10 8 -29 18 -42 23
-33 38 -57 60 -99 33 -64 204 -345 222 -365 10 -11 21 -31 25 -45 4 -14 19
-42 32 -63 14 -22 36 -60 50 -85 14 -26 35 -60 47 -77 12 -16 28 -45 35 -62 8
-18 17 -33 21 -33 4 0 10 -8 13 -17 3 -10 14 -31 24 -48 65 -110 79 -131 90
-138 7 -4 13 -16 13 -25 0 -9 18 -45 40 -80 22 -34 40 -65 40 -68 0 -3 18 -32
40 -65 22 -33 40 -64 40 -67 0 -4 15 -30 33 -57 18 -28 45 -75 61 -105 15 -30
34 -62 41 -70 7 -8 29 -44 49 -80 20 -36 42 -74 49 -85 45 -73 65 -107 92
-162 l31 -61 -29 -6 c-40 -8 -2221 -8 -2333 0 l-89 7 -342 571 c-887 1482
-1848 3086 -2493 4161 -389 649 -712 1190 -719 1202 -12 23 -7 32 634 1068
208 338 408 663 495 805 132 217 142 230 155 191z m-1605 -2683 c50 -80 450
-732 558 -908 51 -85 104 -171 117 -190 12 -19 116 -188 230 -375 220 -360
352 -574 408 -665 18 -30 109 -179 202 -330 93 -151 207 -338 255 -415 48 -77
111 -180 141 -230 29 -49 63 -104 74 -122 11 -17 36 -58 56 -90 19 -32 72
-116 116 -188 44 -71 155 -254 247 -405 93 -151 204 -333 249 -405 79 -129
135 -220 200 -325 18 -30 91 -149 162 -265 70 -115 144 -237 165 -270 21 -33
50 -81 65 -107 l27 -48 -3181 0 -3181 0 0 158 0 157 364 605 c200 333 590 981
866 1440 277 459 767 1274 1090 1810 656 1091 734 1220 736 1220 0 0 16 -24
34 -52z"/>
</g>
</svg>
